<svg xmlns="http://www.w3.org/2000/svg" viewBox="0 8.84000015258789 145.50999450683594 46.95000076293945" data-asc="0.9052734375" width="145.50999450683594" height="46.95000076293945"><defs/><g fill="#ffffff"><g transform="translate(0, 0)"><path d="M0 27.83Q0 18.92 4.79 13.88Q9.57 8.84 17.14 8.84Q22.09 8.84 26.07 11.21Q30.05 13.57 32.14 17.81Q34.23 22.05 34.23 27.42Q34.23 32.86 32.03 37.16Q29.83 41.46 25.81 43.66Q21.78 45.87 17.11 45.87Q12.06 45.87 8.08 43.43Q4.10 40.99 2.05 36.77Q0 32.54 0 27.83M4.88 27.91Q4.88 34.38 8.36 38.10Q11.84 41.82 17.09 41.82Q22.44 41.82 25.89 38.06Q29.35 34.30 29.35 27.39Q29.35 23.02 27.87 19.76Q26.39 16.50 23.55 14.71Q20.70 12.92 17.16 12.92Q12.13 12.92 8.51 16.37Q4.88 19.82 4.88 27.91ZM39.58 55.25L39.09 51.12Q40.53 51.51 41.60 51.51Q43.07 51.51 43.95 51.03Q44.82 50.54 45.39 49.66Q45.80 49.00 46.73 46.39Q46.85 46.02 47.12 45.31L37.28 19.34L42.02 19.34L47.41 34.35Q48.46 37.21 49.29 40.36Q50.05 37.33 51.10 34.45L56.64 19.34L61.04 19.34L51.17 45.70Q49.58 49.98 48.71 51.59Q47.53 53.76 46.02 54.77Q44.51 55.79 42.41 55.79Q41.14 55.79 39.58 55.25ZM63.01 37.52L67.36 36.84Q67.72 39.45 69.40 40.84Q71.07 42.24 74.07 42.24Q77.10 42.24 78.56 41.00Q80.03 39.77 80.03 38.11Q80.03 36.62 78.74 35.77Q77.83 35.18 74.24 34.28Q69.41 33.06 67.54 32.17Q65.67 31.27 64.71 29.70Q63.75 28.13 63.75 26.22Q63.75 24.49 64.54 23.01Q65.33 21.53 66.70 20.56Q67.72 19.80 69.49 19.27Q71.26 18.75 73.29 18.75Q76.34 18.75 78.65 19.63Q80.96 20.51 82.06 22.01Q83.15 23.51 83.57 26.03L79.27 26.61Q78.98 24.61 77.58 23.49Q76.17 22.36 73.61 22.36Q70.58 22.36 69.29 23.36Q67.99 24.37 67.99 25.71Q67.99 26.56 68.53 27.25Q69.07 27.95 70.21 28.42Q70.87 28.66 74.10 29.54Q78.76 30.79 80.60 31.58Q82.45 32.37 83.50 33.89Q84.55 35.40 84.55 37.65Q84.55 39.84 83.26 41.78Q81.98 43.73 79.57 44.79Q77.15 45.85 74.10 45.85Q69.04 45.85 66.39 43.75Q63.75 41.65 63.01 37.52ZM99.37 41.33L100 45.21Q98.14 45.61 96.68 45.61Q94.29 45.61 92.97 44.85Q91.65 44.09 91.11 42.86Q90.58 41.63 90.58 37.67L90.58 22.75L87.35 22.75L87.35 19.34L90.58 19.34L90.58 12.92L94.95 10.28L94.95 19.34L99.37 19.34L99.37 22.75L94.95 22.75L94.95 37.92Q94.95 39.79 95.18 40.33Q95.41 40.87 95.94 41.19Q96.46 41.50 97.44 41.50Q98.17 41.50 99.37 41.33ZM121.41 36.91L125.95 37.48Q124.88 41.46 121.97 43.65Q119.07 45.85 114.55 45.85Q108.86 45.85 105.53 42.35Q102.20 38.84 102.20 32.52Q102.20 25.98 105.57 22.36Q108.94 18.75 114.31 18.75Q119.51 18.75 122.80 22.29Q126.10 25.83 126.10 32.25Q126.10 32.64 126.07 33.42L106.74 33.42Q106.98 37.70 109.16 39.97Q111.33 42.24 114.58 42.24Q116.99 42.24 118.70 40.97Q120.41 39.70 121.41 36.91M106.98 29.81L121.46 29.81Q121.17 26.54 119.80 24.90Q117.70 22.36 114.36 22.36Q111.33 22.36 109.27 24.39Q107.20 26.42 106.98 29.81ZM131.42 45.26L131.42 19.34L135.38 19.34L135.38 23.27Q136.89 20.51 138.17 19.63Q139.45 18.75 140.99 18.75Q143.21 18.75 145.51 20.17L143.99 24.24Q142.38 23.29 140.77 23.29Q139.33 23.29 138.18 24.16Q137.04 25.02 136.55 26.56Q135.82 28.91 135.82 31.69L135.82 45.26L131.42 45.26Z"/></g></g></svg>